<svg xmlns="http://www.w3.org/2000/svg" viewBox="122 33 131 131">
  <defs>
    <style>
      .cls-1 {
        fill: #83b692;
      }

      .cls-2, .cls-3, .cls-4 {
        fill: #fff;
      }

      .cls-2 {
        stroke: #fff;
      }

      .cls-4 {
        fill-rule: evenodd;
      }
    </style>
  </defs>
  <g id="AudreyHat2" transform="translate(2 8)">
    <circle id="Circle" class="cls-1" cx="65.5" cy="65.5" r="65.5" transform="translate(120 25)"/>
    <g id="Bunny" transform="translate(-277.475 -141)">
      <path id="Eye" class="cls-2" d="M35.155,45.567A5.847,5.847,0,0,0,29.306,51.4v.228l.013.04a5.867,5.867,0,0,0,11.728-.214v-.228l-.013-.04A5.88,5.88,0,0,0,35.155,45.567Zm.04,9.02a3.176,3.176,0,0,1-3.183-3.162V51.2l0-.006a3.17,3.17,0,0,1,6.331.232v.228l0,.007A3.194,3.194,0,0,1,35.195,54.587Z" transform="translate(415 176.447)"/>
      <path id="Outline" class="cls-3" d="M86.263,76.8c.01-.245.017-.493.017-.742a18.745,18.745,0,0,0-5.512-13.318c-.006-.007-.013-.012-.019-.019s-.012-.012-.019-.018a92.016,92.016,0,0,0-14.918-11c-7.017-4.415-13.107-8.245-19.579-17.64L58,22.295a5.866,5.866,0,0,0-8.277-8.314l-8.687,8.684V11.412A5.866,5.866,0,0,0,29.3,11.385V34.4L15.8,47.9c-.014.012-.024.021-.036.033A11.282,11.282,0,0,0,23.7,67.173a1.331,1.331,0,0,0,.285-.031h5.325V89.106A5.873,5.873,0,0,0,39.7,92.844a5.872,5.872,0,0,0,9.013.025,5.815,5.815,0,0,0,4.5,2.13l.042,0,.042,0H67.465a18.614,18.614,0,0,0,13.307-5.58A19.034,19.034,0,0,0,82.435,87.5a5.848,5.848,0,0,0,9.09-4.851v-.227l-.015-.042A5.874,5.874,0,0,0,86.263,76.8ZM32,11.385a3.169,3.169,0,0,1,6.338.027V25.363L32,31.7ZM78.855,87.521A15.923,15.923,0,0,1,67.465,92.3H53.208a3.161,3.161,0,0,1-2.2-5.4,3.123,3.123,0,0,1,2.229-.937H63.4a1.369,1.369,0,0,0-.11-2.733A8.42,8.42,0,0,1,57.271,80.7a8.59,8.59,0,0,1-2.5-6.067v0a11.038,11.038,0,0,1,3.315-7.894,1.348,1.348,0,0,0-1.9-1.916,13.711,13.711,0,0,0-4.112,9.805v0A11.25,11.25,0,0,0,55.354,82.6c.233.236.475.457.722.667h-2.84a5.885,5.885,0,0,0-5.858,5.851s0,.011,0,.015a3.169,3.169,0,0,1-6.338-.026v-9.5a1.35,1.35,0,0,0-2.7,0v9.526A3.169,3.169,0,0,1,32,89.106l0-21.964H39.7a1.348,1.348,0,0,0,0-2.7H23.646a1.407,1.407,0,0,0-.246.022,8.431,8.431,0,0,1-5.727-2.521,8.579,8.579,0,0,1-.024-12.085c.007-.009.017-.015.024-.023L31.562,35.951a1.177,1.177,0,0,0,.087-.086l8.973-8.971.041-.041,10.97-10.966a3.159,3.159,0,0,1,5.375,2.261,3.122,3.122,0,0,1-.913,2.239L43.538,32.944l-.009.009-4.784,4.784a1.348,1.348,0,0,0,1.906,1.907L44.3,36c6.7,9.565,13.206,13.66,20.08,17.985a89.993,89.993,0,0,1,14.5,10.672,16.212,16.212,0,0,1-.019,22.863Zm6.82-1.737a3.159,3.159,0,0,1-1.767-.536A18.816,18.816,0,0,0,85.97,79.48a3.176,3.176,0,0,1,2.851,3.144v.234A3.192,3.192,0,0,1,85.675,85.784Z" transform="translate(415 176.447)"/>
    </g>
    <g id="Chef2" transform="translate(-382 -310)">
      <path id="Path_2" data-name="Path 2" class="cls-1" d="M548.269,373.5s-5.733-9.636,5.012-8.97c1.051.065.856-1.078,2-1.937a8.332,8.332,0,0,1,4.493-1.3,6.014,6.014,0,0,1,5.414,4.8,5.661,5.661,0,0,1,.277,2.973,8.346,8.346,0,0,1-1.941,3.362v8.835l2.48.215v3.439H546.5l-.322-3.439h2.088Z"/>
      <path id="Path_3" data-name="Path 3" class="cls-4" d="M32.077,36.474H40.6v2.842H32.077Zm-10.656,0h2.842v2.842H21.421Zm7.815,0h1.421v2.842H29.235Zm-3.552,0h2.131v2.842H25.683ZM21.421,24.03a4.615,4.615,0,0,1,6.571-4.19l.585.271.327-.554a6.027,6.027,0,0,1,11.22,2.808,5.907,5.907,0,0,1-9.561,4.465l-.879,1.116a7.262,7.262,0,0,0,4.538,1.572A6.353,6.353,0,0,0,38.471,28.1v6.954H23.552V27.947l-.634-.521A4.567,4.567,0,0,1,21.421,24.03Zm18.471,2.913a6.621,6.621,0,0,0,1.637-4.716,7.369,7.369,0,0,0-7.43-7.066,7.491,7.491,0,0,0-6.084,3.156,5.968,5.968,0,0,0-1.97-.333A6.054,6.054,0,0,0,20,24.03a5.453,5.453,0,0,0,2.131,4.629v6.394H20v5.683H42.023V35.053H39.892Z" transform="translate(525 345.208)"/>
    </g>
  </g>
</svg>
